<svg xmlns="http://www.w3.org/2000/svg" viewBox="0 0 147.41 147.41"><title>oce_component</title><g id="Capa_2" data-name="Capa 2"><g id="Capa_1-2" data-name="Capa 1"><path d="M87.15,87.33c-7.51,7.53-8.36,22.5,8.11,25.27,8.27,1.43,11.6,5.4,8,10.14L78.57,147.41,49,117.88c-4.73-3.61-8.7-.29-10.13,8-2.77,16.48-17.74,15.63-25.27,8.12l-.19-.19c-7.5-7.52-8.35-22.49,8.12-25.27,8.28-1.43,11.6-5.4,8-10.13L0,68.85,24.68,44.17c4.74-3.61,8.71-.28,10.13,8,2.78,16.48,17.75,15.63,25.28,8.12l.18-.18c7.5-7.54,8.36-22.51-8.12-25.28-8.26-1.42-11.6-5.4-8-10.13L68.85,0,98.39,29.54c4.72,3.61,8.7.29,10.12-8,2.77-16.48,17.74-15.62,25.28-8.12l.19.19c7.49,7.52,8.34,22.5-8.12,25.27-8.28,1.43-11.6,5.41-8,10.13l29.54,29.55-24.67,24.68c-4.74,3.61-8.71.28-10.14-8-2.78-16.48-17.75-15.62-25.27-8.11Z" style="fill:#2f5c6e"/></g></g></svg>